#!OML:ASF H:\Dans Jumps\Project 1\Capture day 1\Session 1\subject.ASF
:FULLY-SPECIFIED
:DEGREES
577
root 0.473865 17.6902 10.8717 4.75013 -1.4901 -1.37403
lowerback -3.8773 0.329235 -0.0693978
upperback 3.04091 0.388666 1.13677
thorax 5.31491 0.166596 1.24979
lowerneck -10.9365 0.473826 -1.0923
upperneck 31.7692 0.876717 0.248003
head 12.2677 0.292419 0.403509
rclavicle 4.77083e-015 9.93923e-016
rhumerus -25.9682 -21.1345 -78.2097
rradius 22.3448
rwrist 39.8587
rhand -18.0469 -27.1324
rfingers 7.12502
rthumb 8.2251 -56.9523
lclavicle 4.77083e-015 9.93923e-016
lhumerus -23.6721 6.90602 82.8335
lradius 14.717
lwrist -1.21931
lhand -23.7446 -6.9753
lfingers 7.12502
lthumb 2.72404 22.987
rfemur -12.5095 -1.20199 19.8395
rtibia 21.0577
rfoot -13.1261 1.61715
rtoes 14.7775
lfemur -10.1062 6.7802 -17.6371
ltibia 18.2325
lfoot -9.83947 5.27089
ltoes -8.61754
578
root 0.4684 17.6909 10.8757 4.77533 -1.48382 -1.36782
lowerback -3.90015 0.323896 -0.0401554
upperback 3.0404 0.380081 1.12609
thorax 5.32785 0.163601 1.22179
lowerneck -10.9694 0.493053 -1.06656
upperneck 31.5663 0.903944 0.227843
head 12.1919 0.306256 0.394209
rclavicle -2.48481e-015 -1.98785e-015
rhumerus -25.6516 -21.028 -78.2729
rradius 22.4204
rwrist 39.732
rhand -18.0925 -27.1664
rfingers 7.12502
rthumb 8.18106 -56.988
lclavicle -2.48481e-015 -1.98785e-015
lhumerus -23.5696 6.7639 83.0594
lradius 14.8155
lwrist -1.14501
lhand -23.6957 -6.90061
lfingers 7.12502
lthumb 2.77125 23.0611
rfemur -12.5101 -1.25395 19.8507
rtibia 21.0378
rfoot -13.1302 1.67926
rtoes 14.8609
lfemur -10.1134 6.79776 -17.6279
ltibia 18.2218
lfoot -9.84612 5.26347
ltoes -8.62603
579
root 0.463088 17.6913 10.879 4.79892 -1.47747 -1.36619
lowerback -3.91067 0.319448 -0.0093412
upperback 3.03707 0.372458 1.11987
thorax 5.33075 0.161102 1.19747
lowerneck -11.0082 0.508752 -1.05034
upperneck 31.3718 0.927295 0.211285
head 12.1211 0.317649 0.387507
rclavicle -2.08724e-015 -1.41137e-014
rhumerus -25.347 -20.8836 -78.3419
rradius 22.5187
rwrist 39.5504
rhand -18.1513 -27.2005
rfingers 7.12502
rthumb 8.12431 -57.0244
lclavicle -2.08724e-015 -1.41137e-014
lhumerus -23.4578 6.61034 83.2984
lradius 14.9069
lwrist -1.0723
lhand -23.6465 -6.8439
lfingers 7.12502
lthumb 2.81876 23.1172
rfemur -12.5128 -1.29588 19.8662
rtibia 21.0195
rfoot -13.1318 1.73377
rtoes 14.9404
lfemur -10.1273 6.81499 -17.6138
ltibia 18.2204
lfoot -9.8528 5.25679
ltoes -8.64749
580
root 0.457926 17.6916 10.8814 4.82316 -1.46904 -1.37317
lowerback -3.9035 0.315486 0.0277513
upperback 3.02829 0.365033 1.11807
thorax 5.31784 0.158918 1.17401
lowerneck -11.0623 0.523987 -1.03461
upperneck 31.1929 0.95117 0.192184
head 12.0601 0.328797 0.380176
rclavicle -7.70291e-016 5.1684e-015
rhumerus -25.0592 -20.6994 -78.4188
rradius 22.6481
rwrist 39.3072
rhand -18.2268 -27.2323
rfingers 7.12502
rthumb 8.05148 -57.0589
lclavicle -7.70291e-016 5.1684e-015
lhumerus -23.352 6.43138 83.5511
lradius 15.014
lwrist -0.987644
lhand -23.624 -6.83916
lfingers 7.12502
lthumb 2.84044 23.1217
rfemur -12.5208 -1.3236 19.8911
rtibia 21.0027
rfoot -13.1288 1.77228
rtoes 15.0136
lfemur -10.1515 6.82743 -17.5907
ltibia 18.2285
lfoot -9.85532 5.25493
ltoes -8.68904
581
root 0.452879 17.6919 10.8829 4.84935 -1.45985 -1.38679
lowerback -3.88195 0.311802 0.0679236
upperback 3.01485 0.357763 1.11998
thorax 5.29181 0.156899 1.15254
lowerneck -11.1248 0.537502 -1.02421
upperneck 31.0239 0.973137 0.175704
head 12.005 0.338734 0.374617
rclavicle -5.34234e-015 2.5842e-015
rhumerus -24.7838 -20.4783 -78.5038
rradius 22.8035
rwrist 39.0128
rhand -18.3075 -27.266
rfingers 7.12502
rthumb 7.97357 -57.0956
lclavicle -5.34234e-015 2.5842e-015
lhumerus -23.245 6.23907 83.8134
lradius 15.1267
lwrist -0.898206
lhand -23.6171 -6.86498
lfingers 7.12502
lthumb 2.84713 23.0958
rfemur -12.536 -1.33645 19.9231
rtibia 20.9876
rfoot -13.122 1.79486
rtoes 15.0739
lfemur -10.1867 6.83446 -17.5609
ltibia 18.2446
lfoot -9.85396 5.25952
ltoes -8.73849
582
root 0.447791 17.6922 10.8835 4.87661 -1.44522 -1.39996
lowerback -3.84967 0.307808 0.102118
upperback 3.00088 0.350506 1.12316
thorax 5.25905 0.15465 1.13563
lowerneck -11.227 0.552661 -1.00655
upperneck 30.8851 0.997742 0.155148
head 11.9706 0.349946 0.36698
rclavicle -5.2181e-016 1.98785e-015
rhumerus -24.5142 -20.2423 -78.5912
rradius 22.9793
rwrist 38.6864
rhand -18.3818 -27.286
rfingers 7.12502
rthumb 7.90183 -57.1184
lclavicle -5.2181e-016 1.98785e-015
lhumerus -23.1402 6.0391 84.0838
lradius 15.2655
lwrist -0.794798
lhand -23.6537 -6.92807
lfingers 7.12502
lthumb 2.8118 23.0331
rfemur -12.5556 -1.34127 19.9558
rtibia 20.9743
rfoot -13.1142 1.80043
rtoes 15.1144
lfemur -10.2289 6.84307 -17.5312
ltibia 18.2641
lfoot -9.85224 5.25714
ltoes -8.78438
583
root 0.443016 17.6925 10.8838 4.90604 -1.42416 -1.41286
lowerback -3.81395 0.30204 0.136716
upperback 2.98772 0.340888 1.12671
thorax 5.22523 0.151225 1.11868
lowerneck -11.3315 0.565754 -0.992955
upperneck 30.7443 1.01973 0.136353
head 11.9359 0.359745 0.360392
rclavicle -1.81391e-015 -1.0138e-014
rhumerus -24.2479 -19.9937 -78.685
rradius 23.1708
rwrist 38.3386
rhand -18.4643 -27.2861
rfingers 7.12502
rthumb 7.82223 -57.1214
lclavicle -1.81391e-015 -1.0138e-014
lhumerus -23.0268 5.82353 84.3625
lradius 15.4058
lwrist -0.688404
lhand -23.6986 -7.00867
lfingers 7.12502
lthumb 2.76848 22.9531
rfemur -12.5799 -1.34627 19.9875
rtibia 20.9636
rfoot -13.1068 1.79575
rtoes 15.1368
lfemur -10.2748 6.84457 -17.5031
ltibia 18.2805
lfoot -9.84743 5.25294
ltoes -8.81946
584
root 0.438641 17.693 10.884 4.93634 -1.39479 -1.41721
lowerback -3.7806 0.293291 0.164189
upperback 2.97638 0.327786 1.12891
thorax 5.19469 0.145811 1.1041
lowerneck -11.4385 0.578043 -0.98035
upperneck 30.6049 1.04175 0.114428
head 11.9025 0.369041 0.352854
rclavicle -4.29872e-015 -1.45113e-014
rhumerus -23.9891 -19.7226 -78.7872
rradius 23.3812
rwrist 37.9666
rhand -18.5368 -27.2941
rfingers 7.12502
rthumb 7.75229 -57.1319
lclavicle -4.29872e-015 -1.45113e-014
lhumerus -22.9031 5.57169 84.6561
lradius 15.549
lwrist -0.551158
lhand -23.7145 -7.02966
lfingers 7.12502
lthumb 2.75313 22.9323
rfemur -12.6049 -1.3614 20.009
rtibia 20.9552
rfoot -13.1013 1.78847
rtoes 15.1338
lfemur -10.3191 6.84135 -17.486
ltibia 18.2897
lfoot -9.84235 5.24145
ltoes -8.84405
585
root 0.434767 17.6936 10.8846 4.96824 -1.35964 -1.41091
lowerback -3.75755 0.28426 0.185435
upperback 2.9659 0.314765 1.12802
thorax 5.17091 0.140241 1.08992
lowerneck -11.5237 0.58756 -0.974828
upperneck 30.4527 1.06045 0.0945349
head 11.8596 0.376439 0.346723
rclavicle 1.21756e-015 -7.55382e-015
rhumerus -23.7412 -19.4366 -78.8947
rradius 23.6039
rwrist 37.5778
rhand -18.6041 -27.3095
rfingers 7.12502
rthumb 7.6873 -57.1498
lclavicle 1.21756e-015 -7.55382e-015
lhumerus -22.7755 5.27364 84.9661
lradius 15.7014
lwrist -0.38244
lhand -23.7021 -6.98039
lfingers 7.12502
lthumb 2.76506 22.9814
rfemur -12.6301 -1.38766 20.0173
rtibia 20.9479
rfoot -13.0969 1.78137
rtoes 15.1076
lfemur -10.359 6.83266 -17.4827
ltibia 18.2892
lfoot -9.83644 5.2266
ltoes -8.85553
